{
	"asset":{
		"generator":"Khronos glTF Blender I/O v5.1.19",
		"version":"2.0"
	},
	"scene":0,
	"scenes":[
		{
			"name":"Scene",
			"nodes":[
				0,
				1
			]
		}
	],
	"nodes":[
		{
			"mesh":0,
			"name":"Z_UP"
		},
		{
			"mesh":1,
			"name":"Z_Simple"
		}
	],
	"materials":[
		{
			"doubleSided":true,
			"name":"color12material-effect.010",
			"pbrMetallicRoughness":{
				"baseColorFactor":[
					0.03921600058674812,
					0.03921600058674812,
					0.03921600058674812,
					1
				],
				"metallicFactor":0
			}
		},
		{
			"doubleSided":true,
			"name":"texture0material-effect.001",
			"pbrMetallicRoughness":{
				"baseColorTexture":{
					"index":0
				},
				"metallicFactor":0
			}
		},
		{
			"doubleSided":true,
			"name":"color11material-effect.008",
			"pbrMetallicRoughness":{
				"baseColorFactor":[
					0.5607839822769165,
					0.5607839822769165,
					0.5607839822769165,
					1
				],
				"metallicFactor":0
			}
		},
		{
			"doubleSided":true,
			"name":"color12material-effect.001",
			"pbrMetallicRoughness":{
				"baseColorFactor":[
					0.03921600058674812,
					0.03921600058674812,
					0.03921600058674812,
					1
				],
				"metallicFactor":0
			}
		},
		{
			"doubleSided":true,
			"name":"color11material-effect.005",
			"pbrMetallicRoughness":{
				"baseColorFactor":[
					0.5607839822769165,
					0.5607839822769165,
					0.5607839822769165,
					1
				],
				"metallicFactor":0
			}
		},
		{
			"doubleSided":true,
			"name":"color13material-effect.001",
			"pbrMetallicRoughness":{
				"baseColorFactor":[
					0.5450980067253113,
					0.5450980067253113,
					0.5450980067253113,
					1
				],
				"metallicFactor":0
			}
		},
		{
			"doubleSided":true,
			"name":"color11material-effect.011",
			"pbrMetallicRoughness":{
				"baseColorFactor":[
					0.5607839822769165,
					0.5607839822769165,
					0.5607839822769165,
					1
				],
				"metallicFactor":0
			}
		},
		{
			"doubleSided":true,
			"name":"color11material-effect.012",
			"pbrMetallicRoughness":{
				"baseColorFactor":[
					0.5607839822769165,
					0.5607839822769165,
					0.5607839822769165,
					1
				],
				"metallicFactor":0
			}
		},
		{
			"doubleSided":true,
			"name":"color14material-effect.001",
			"pbrMetallicRoughness":{
				"baseColorFactor":[
					0.33333298563957214,
					0.33333298563957214,
					0.33333298563957214,
					1
				],
				"metallicFactor":0
			}
		}
	],
	"meshes":[
		{
			"name":"geometry-22.004",
			"primitives":[
				{
					"attributes":{
						"POSITION":0,
						"NORMAL":1,
						"TEXCOORD_0":2
					},
					"indices":3,
					"material":0
				}
			]
		},
		{
			"name":"geometry-22.001",
			"primitives":[
				{
					"attributes":{
						"POSITION":4,
						"NORMAL":5,
						"TEXCOORD_0":6
					},
					"indices":7,
					"material":0
				},
				{
					"attributes":{
						"POSITION":8,
						"NORMAL":9,
						"TEXCOORD_0":10
					},
					"indices":11,
					"material":1
				},
				{
					"attributes":{
						"POSITION":12,
						"NORMAL":13,
						"TEXCOORD_0":14
					},
					"indices":15,
					"material":2
				},
				{
					"attributes":{
						"POSITION":16,
						"NORMAL":17,
						"TEXCOORD_0":18
					},
					"indices":19,
					"material":3
				},
				{
					"attributes":{
						"POSITION":20,
						"NORMAL":21,
						"TEXCOORD_0":22
					},
					"indices":23,
					"material":4
				},
				{
					"attributes":{
						"POSITION":24,
						"NORMAL":25,
						"TEXCOORD_0":26
					},
					"indices":27,
					"material":5
				},
				{
					"attributes":{
						"POSITION":28,
						"NORMAL":29,
						"TEXCOORD_0":30
					},
					"indices":31,
					"material":6
				},
				{
					"attributes":{
						"POSITION":32,
						"NORMAL":33,
						"TEXCOORD_0":34
					},
					"indices":11,
					"material":7
				},
				{
					"attributes":{
						"POSITION":35,
						"NORMAL":36,
						"TEXCOORD_0":37
					},
					"indices":38,
					"material":8
				}
			]
		}
	],
	"textures":[
		{
			"sampler":0,
			"source":0
		}
	],
	"images":[
		{
			"mimeType":"image/png",
			"name":"Image_0",
			"uri":"Image_0.png"
		}
	],
	"accessors":[
		{
			"bufferView":0,
			"componentType":5126,
			"count":150,
			"max":[
				1.1949005126953125,
				-6.705049599986523e-07,
				0.4447321891784668
			],
			"min":[
				-1.1950480937957764,
				-0.052628710865974426,
				-0.45526784658432007
			],
			"type":"VEC3"
		},
		{
			"bufferView":1,
			"componentType":5126,
			"count":150,
			"type":"VEC3"
		},
		{
			"bufferView":2,
			"componentType":5126,
			"count":150,
			"type":"VEC2"
		},
		{
			"bufferView":3,
			"componentType":5123,
			"count":324,
			"type":"SCALAR"
		},
		{
			"bufferView":4,
			"componentType":5126,
			"count":104,
			"max":[
				1.1949005126953125,
				-6.705049599986523e-07,
				0.4447321891784668
			],
			"min":[
				-1.1950480937957764,
				-0.052628710865974426,
				-0.45526784658432007
			],
			"type":"VEC3"
		},
		{
			"bufferView":5,
			"componentType":5126,
			"count":104,
			"type":"VEC3"
		},
		{
			"bufferView":6,
			"componentType":5126,
			"count":104,
			"type":"VEC2"
		},
		{
			"bufferView":7,
			"componentType":5123,
			"count":216,
			"type":"SCALAR"
		},
		{
			"bufferView":8,
			"componentType":5126,
			"count":20,
			"max":[
				-0.4500309228897095,
				-0.052834510803222656,
				0.41950082778930664
			],
			"min":[
				-1.0463788509368896,
				-0.22788244485855103,
				0.39951178431510925
			],
			"type":"VEC3"
		},
		{
			"bufferView":9,
			"componentType":5126,
			"count":20,
			"type":"VEC3"
		},
		{
			"bufferView":10,
			"componentType":5126,
			"count":20,
			"type":"VEC2"
		},
		{
			"bufferView":11,
			"componentType":5123,
			"count":30,
			"type":"SCALAR"
		},
		{
			"bufferView":12,
			"componentType":5126,
			"count":240,
			"max":[
				1.0922026634216309,
				-0.087868332862854,
				0.4494989216327667
			],
			"min":[
				-0.9038184881210327,
				-0.2768334746360779,
				0.4195008873939514
			],
			"type":"VEC3"
		},
		{
			"bufferView":13,
			"componentType":5126,
			"count":240,
			"type":"VEC3"
		},
		{
			"bufferView":14,
			"componentType":5126,
			"count":240,
			"type":"VEC2"
		},
		{
			"bufferView":15,
			"componentType":5123,
			"count":432,
			"type":"SCALAR"
		},
		{
			"bufferView":16,
			"componentType":5126,
			"count":72,
			"max":[
				1.2000000476837158,
				-0.006813466548919678,
				0.4499995708465576
			],
			"min":[
				-1.2000001668930054,
				-0.046852707862854004,
				-0.4500006437301636
			],
			"type":"VEC3"
		},
		{
			"bufferView":17,
			"componentType":5126,
			"count":72,
			"type":"VEC3"
		},
		{
			"bufferView":18,
			"componentType":5126,
			"count":72,
			"type":"VEC2"
		},
		{
			"bufferView":19,
			"componentType":5123,
			"count":141,
			"type":"SCALAR"
		},
		{
			"bufferView":20,
			"componentType":5126,
			"count":160,
			"max":[
				1.149764060974121,
				-0.05283403396606445,
				0.4195009768009186
			],
			"min":[
				-1.189950704574585,
				-0.7578586935997009,
				0.39951178431510925
			],
			"type":"VEC3"
		},
		{
			"bufferView":21,
			"componentType":5126,
			"count":160,
			"type":"VEC3"
		},
		{
			"bufferView":22,
			"componentType":5126,
			"count":160,
			"type":"VEC2"
		},
		{
			"bufferView":23,
			"componentType":5123,
			"count":240,
			"type":"SCALAR"
		},
		{
			"bufferView":24,
			"componentType":5126,
			"count":90,
			"max":[
				1.154807209968567,
				-0.046852052211761475,
				0.39951208233833313
			],
			"min":[
				-1.2000010013580322,
				-0.8568625450134277,
				-0.18551015853881836
			],
			"type":"VEC3"
		},
		{
			"bufferView":25,
			"componentType":5126,
			"count":90,
			"type":"VEC3"
		},
		{
			"bufferView":26,
			"componentType":5126,
			"count":90,
			"type":"VEC2"
		},
		{
			"bufferView":27,
			"componentType":5123,
			"count":138,
			"type":"SCALAR"
		},
		{
			"bufferView":28,
			"componentType":5126,
			"count":12,
			"max":[
				1.154807209968567,
				-0.046852290630340576,
				-0.18551002442836761
			],
			"min":[
				-1.2000010013580322,
				-0.8068622350692749,
				-0.20549923181533813
			],
			"type":"VEC3"
		},
		{
			"bufferView":29,
			"componentType":5126,
			"count":12,
			"type":"VEC3"
		},
		{
			"bufferView":30,
			"componentType":5126,
			"count":12,
			"type":"VEC2"
		},
		{
			"bufferView":31,
			"componentType":5123,
			"count":18,
			"type":"SCALAR"
		},
		{
			"bufferView":32,
			"componentType":5126,
			"count":20,
			"max":[
				1.2000000476837158,
				-0.04185241460800171,
				0.4444948732852936
			],
			"min":[
				1.1548081636428833,
				-0.8568623661994934,
				-0.20549939572811127
			],
			"type":"VEC3"
		},
		{
			"bufferView":33,
			"componentType":5126,
			"count":20,
			"type":"VEC3"
		},
		{
			"bufferView":34,
			"componentType":5126,
			"count":20,
			"type":"VEC2"
		},
		{
			"bufferView":35,
			"componentType":5126,
			"count":38,
			"max":[
				-1.0524141788482666,
				-0.052834510803222656,
				0.42950987815856934
			],
			"min":[
				-1.1899510622024536,
				-0.22788244485855103,
				0.39951184391975403
			],
			"type":"VEC3"
		},
		{
			"bufferView":36,
			"componentType":5126,
			"count":38,
			"type":"VEC3"
		},
		{
			"bufferView":37,
			"componentType":5126,
			"count":38,
			"type":"VEC2"
		},
		{
			"bufferView":38,
			"componentType":5123,
			"count":174,
			"type":"SCALAR"
		}
	],
	"bufferViews":[
		{
			"buffer":0,
			"byteLength":1800,
			"byteOffset":0,
			"target":34962
		},
		{
			"buffer":0,
			"byteLength":1800,
			"byteOffset":1800,
			"target":34962
		},
		{
			"buffer":0,
			"byteLength":1200,
			"byteOffset":3600,
			"target":34962
		},
		{
			"buffer":0,
			"byteLength":648,
			"byteOffset":4800,
			"target":34963
		},
		{
			"buffer":0,
			"byteLength":1248,
			"byteOffset":5448,
			"target":34962
		},
		{
			"buffer":0,
			"byteLength":1248,
			"byteOffset":6696,
			"target":34962
		},
		{
			"buffer":0,
			"byteLength":832,
			"byteOffset":7944,
			"target":34962
		},
		{
			"buffer":0,
			"byteLength":432,
			"byteOffset":8776,
			"target":34963
		},
		{
			"buffer":0,
			"byteLength":240,
			"byteOffset":9208,
			"target":34962
		},
		{
			"buffer":0,
			"byteLength":240,
			"byteOffset":9448,
			"target":34962
		},
		{
			"buffer":0,
			"byteLength":160,
			"byteOffset":9688,
			"target":34962
		},
		{
			"buffer":0,
			"byteLength":60,
			"byteOffset":9848,
			"target":34963
		},
		{
			"buffer":0,
			"byteLength":2880,
			"byteOffset":9908,
			"target":34962
		},
		{
			"buffer":0,
			"byteLength":2880,
			"byteOffset":12788,
			"target":34962
		},
		{
			"buffer":0,
			"byteLength":1920,
			"byteOffset":15668,
			"target":34962
		},
		{
			"buffer":0,
			"byteLength":864,
			"byteOffset":17588,
			"target":34963
		},
		{
			"buffer":0,
			"byteLength":864,
			"byteOffset":18452,
			"target":34962
		},
		{
			"buffer":0,
			"byteLength":864,
			"byteOffset":19316,
			"target":34962
		},
		{
			"buffer":0,
			"byteLength":576,
			"byteOffset":20180,
			"target":34962
		},
		{
			"buffer":0,
			"byteLength":282,
			"byteOffset":20756,
			"target":34963
		},
		{
			"buffer":0,
			"byteLength":1920,
			"byteOffset":21040,
			"target":34962
		},
		{
			"buffer":0,
			"byteLength":1920,
			"byteOffset":22960,
			"target":34962
		},
		{
			"buffer":0,
			"byteLength":1280,
			"byteOffset":24880,
			"target":34962
		},
		{
			"buffer":0,
			"byteLength":480,
			"byteOffset":26160,
			"target":34963
		},
		{
			"buffer":0,
			"byteLength":1080,
			"byteOffset":26640,
			"target":34962
		},
		{
			"buffer":0,
			"byteLength":1080,
			"byteOffset":27720,
			"target":34962
		},
		{
			"buffer":0,
			"byteLength":720,
			"byteOffset":28800,
			"target":34962
		},
		{
			"buffer":0,
			"byteLength":276,
			"byteOffset":29520,
			"target":34963
		},
		{
			"buffer":0,
			"byteLength":144,
			"byteOffset":29796,
			"target":34962
		},
		{
			"buffer":0,
			"byteLength":144,
			"byteOffset":29940,
			"target":34962
		},
		{
			"buffer":0,
			"byteLength":96,
			"byteOffset":30084,
			"target":34962
		},
		{
			"buffer":0,
			"byteLength":36,
			"byteOffset":30180,
			"target":34963
		},
		{
			"buffer":0,
			"byteLength":240,
			"byteOffset":30216,
			"target":34962
		},
		{
			"buffer":0,
			"byteLength":240,
			"byteOffset":30456,
			"target":34962
		},
		{
			"buffer":0,
			"byteLength":160,
			"byteOffset":30696,
			"target":34962
		},
		{
			"buffer":0,
			"byteLength":456,
			"byteOffset":30856,
			"target":34962
		},
		{
			"buffer":0,
			"byteLength":456,
			"byteOffset":31312,
			"target":34962
		},
		{
			"buffer":0,
			"byteLength":304,
			"byteOffset":31768,
			"target":34962
		},
		{
			"buffer":0,
			"byteLength":348,
			"byteOffset":32072,
			"target":34963
		}
	],
	"samplers":[
		{
			"magFilter":9729,
			"minFilter":9987
		}
	],
	"buffers":[
		{
			"byteLength":32420,
			"uri":"simple.bin"
		}
	]
}
