{
	"asset":{
		"generator":"Khronos glTF Blender I/O v5.1.19",
		"version":"2.0"
	},
	"extensionsUsed":[
		"KHR_materials_unlit"
	],
	"scene":0,
	"scenes":[
		{
			"name":"Scene",
			"nodes":[
				16,
				17
			]
		}
	],
	"nodes":[
		{
			"name":"Part_1_Model.002"
		},
		{
			"children":[
				0
			],
			"name":"Part_1.002",
			"rotation":[
				0,
				0,
				-1,
				0
			],
			"translation":[
				0.022499997168779373,
				0,
				0
			]
		},
		{
			"mesh":0,
			"name":"14_primitive.002",
			"scale":[
				596.347900390625,
				19.988983154296875,
				175.0479736328125
			],
			"translation":[
				0.01499999687075615,
				0.0029999990947544575,
				0.006810487248003483
			]
		},
		{
			"mesh":1,
			"name":"17_primitive.002",
			"scale":[
				1996.0211181640625,
				29.997997283935547,
				188.9649658203125
			],
			"translation":[
				0.01499999687075615,
				0.0030000011902302504,
				0
			]
		},
		{
			"mesh":2,
			"name":"3_primitive.002",
			"scale":[
				2400,
				900.0003051757812,
				40.03900146484375
			],
			"translation":[
				0.01454019546508789,
				0,
				0
			]
		},
		{
			"mesh":3,
			"name":"4_primitive.002",
			"scale":[
				2339.71484375,
				19.988983154296875,
				705.02392578125
			],
			"translation":[
				0.01499999687075615,
				0.0030000011902302504,
				0
			]
		},
		{
			"mesh":4,
			"name":"5_primitive.002",
			"scale":[
				2354.80810546875,
				585.0220336914062,
				810.0103759765625
			],
			"translation":[
				0.01499999687075615,
				0.0029999990947544575,
				0.006810487248003483
			]
		},
		{
			"mesh":5,
			"name":"6_primitive.002",
			"scale":[
				2354.80810546875,
				19.988998413085938,
				760.010009765625
			],
			"translation":[
				0.01499999687075615,
				0.0029999990947544575,
				0.006810487248003483
			]
		},
		{
			"mesh":6,
			"name":"7_primitive.002",
			"scale":[
				45.19189453125,
				649.9940185546875,
				815.0101928710938
			],
			"translation":[
				0.01499999687075615,
				0.0030000011902302504,
				0
			]
		},
		{
			"mesh":7,
			"name":"8_primitive.002",
			"scale":[
				137.5369873046875,
				29.99796485900879,
				175.0479736328125
			],
			"translation":[
				0.01499999687075615,
				0.0029999990947544575,
				0.006810487248003483
			]
		},
		{
			"children":[
				2,
				3,
				4,
				5,
				6,
				7,
				8,
				9
			],
			"name":"Part_2_Model.002"
		},
		{
			"name":"Part_3_Model.002"
		},
		{
			"children":[
				11
			],
			"name":"Part_3.002",
			"scale":[
				1.000249981880188,
				0.9999362826347351,
				1.0001260042190552
			],
			"translation":[
				0.51500004529953,
				0.15410001575946808,
				0.8298999667167664
			]
		},
		{
			"children":[
				10,
				12
			],
			"name":"Part_2.002"
		},
		{
			"children":[
				1,
				13
			],
			"name":"Part_0.002"
		},
		{
			"children":[
				14
			],
			"name":"Model.002",
			"rotation":[
				-0.70710688829422,
				0,
				0,
				0.7071066498756409
			],
			"translation":[
				0,
				-0.8569828867912292,
				0
			]
		},
		{
			"children":[
				15
			],
			"name":"Z_UP.002",
			"translation":[
				-0.031279802322387695,
				0.00012038653221679851,
				0
			]
		},
		{
			"mesh":8,
			"name":"\u5e73\u9762.003",
			"rotation":[
				0.70710688829422,
				0,
				0,
				0.7071066498756409
			],
			"scale":[
				1.1999804973602295,
				1,
				0.43680480122566223
			],
			"translation":[
				-0.031294822692871094,
				0.3962838053703308,
				-0.4502255916595459
			]
		}
	],
	"materials":[
		{
			"doubleSided":true,
			"name":"texture0material-effect.002",
			"pbrMetallicRoughness":{
				"baseColorTexture":{
					"index":0
				},
				"metallicFactor":0
			}
		},
		{
			"doubleSided":true,
			"name":"color11material-effect.002",
			"pbrMetallicRoughness":{
				"baseColorFactor":[
					0.5607839822769165,
					0.5607839822769165,
					0.5607839822769165,
					1
				],
				"metallicFactor":0
			}
		},
		{
			"doubleSided":true,
			"name":"color12material-effect.006",
			"pbrMetallicRoughness":{
				"baseColorFactor":[
					0.5518106818199158,
					0.5898009538650513,
					0.5351061224937439,
					1
				],
				"metallicFactor":0
			}
		},
		{
			"doubleSided":true,
			"name":"color11material-effect.003",
			"pbrMetallicRoughness":{
				"baseColorFactor":[
					0.5607839822769165,
					0.5607839822769165,
					0.5607839822769165,
					1
				],
				"metallicFactor":0
			}
		},
		{
			"doubleSided":true,
			"name":"color13material-effect.002",
			"pbrMetallicRoughness":{
				"baseColorFactor":[
					0.5450980067253113,
					0.5450980067253113,
					0.5450980067253113,
					1
				],
				"metallicFactor":0
			}
		},
		{
			"doubleSided":true,
			"name":"color11material-effect.004",
			"pbrMetallicRoughness":{
				"baseColorFactor":[
					0.5607839822769165,
					0.5607839822769165,
					0.5607839822769165,
					1
				],
				"metallicFactor":0
			}
		},
		{
			"doubleSided":true,
			"name":"color11material-effect.007",
			"pbrMetallicRoughness":{
				"baseColorFactor":[
					0.5607839822769165,
					0.5607839822769165,
					0.5607839822769165,
					1
				],
				"metallicFactor":0
			}
		},
		{
			"doubleSided":true,
			"name":"color14material-effect.002",
			"pbrMetallicRoughness":{
				"baseColorFactor":[
					0.33333298563957214,
					0.33333298563957214,
					0.33333298563957214,
					1
				],
				"metallicFactor":0
			}
		},
		{
			"doubleSided":true,
			"extensions":{
				"KHR_materials_unlit":{}
			},
			"name":"\u30de\u30c6\u30ea\u30a2\u30eb.002",
			"pbrMetallicRoughness":{
				"baseColorTexture":{
					"index":1
				},
				"metallicFactor":0,
				"roughnessFactor":0.9
			}
		}
	],
	"meshes":[
		{
			"name":"geometry-14.002",
			"primitives":[
				{
					"attributes":{
						"POSITION":0,
						"NORMAL":1,
						"TEXCOORD_0":2
					},
					"indices":3,
					"material":0
				}
			]
		},
		{
			"name":"geometry-17.002",
			"primitives":[
				{
					"attributes":{
						"POSITION":4,
						"NORMAL":5
					},
					"indices":6,
					"material":1
				}
			]
		},
		{
			"name":"geometry-3.002",
			"primitives":[
				{
					"attributes":{
						"POSITION":7,
						"NORMAL":8
					},
					"indices":9,
					"material":2
				}
			]
		},
		{
			"name":"geometry-4.002",
			"primitives":[
				{
					"attributes":{
						"POSITION":10,
						"NORMAL":11
					},
					"indices":12,
					"material":3
				}
			]
		},
		{
			"name":"geometry-5.002",
			"primitives":[
				{
					"attributes":{
						"POSITION":13,
						"NORMAL":14
					},
					"indices":15,
					"material":4
				}
			]
		},
		{
			"name":"geometry-6.002",
			"primitives":[
				{
					"attributes":{
						"POSITION":16,
						"NORMAL":17
					},
					"indices":18,
					"material":5
				}
			]
		},
		{
			"name":"geometry-7.002",
			"primitives":[
				{
					"attributes":{
						"POSITION":19,
						"NORMAL":20
					},
					"indices":3,
					"material":6
				}
			]
		},
		{
			"name":"geometry-8.002",
			"primitives":[
				{
					"attributes":{
						"POSITION":21,
						"NORMAL":22
					},
					"indices":23,
					"material":7
				}
			]
		},
		{
			"name":"\u5e73\u9762.003",
			"primitives":[
				{
					"attributes":{
						"POSITION":24,
						"NORMAL":25,
						"TEXCOORD_0":26
					},
					"indices":27,
					"material":8
				}
			]
		}
	],
	"textures":[
		{
			"sampler":0,
			"source":0
		},
		{
			"sampler":0,
			"source":1
		}
	],
	"images":[
		{
			"mimeType":"image/png",
			"name":"Image_0",
			"uri":"Image_0.png"
		},
		{
			"mimeType":"image/png",
			"name":"tile3",
			"uri":"tile3.png"
		}
	],
	"accessors":[
		{
			"bufferView":0,
			"componentType":5126,
			"count":20,
			"max":[
				-0.0007797980215400457,
				-0.020136695355176926,
				0.00459318608045578
			],
			"min":[
				-0.001779798069037497,
				-0.0211366955190897,
				0.0035931861493736506
			],
			"type":"VEC3"
		},
		{
			"bufferView":1,
			"componentType":5126,
			"count":20,
			"type":"VEC3"
		},
		{
			"bufferView":2,
			"componentType":5126,
			"count":20,
			"type":"VEC2"
		},
		{
			"bufferView":3,
			"componentType":5123,
			"count":30,
			"type":"SCALAR"
		},
		{
			"bufferView":4,
			"componentType":5126,
			"count":240,
			"max":[
				0.0005396750057116151,
				-0.014084313064813614,
				0.00406950619071722
			],
			"min":[
				-0.00046032501268200576,
				-0.015084312297403812,
				0.0030695050954818726
			],
			"type":"VEC3"
		},
		{
			"bufferView":5,
			"componentType":5126,
			"count":240,
			"type":"VEC3"
		},
		{
			"bufferView":6,
			"componentType":5123,
			"count":432,
			"type":"SCALAR"
		},
		{
			"bufferView":7,
			"componentType":5126,
			"count":73,
			"max":[
				0.000493750034365803,
				0.0004966669948771596,
				0.02123052440583706
			],
			"min":[
				-0.0005062500713393092,
				-0.0005033329944126308,
				0.020230524241924286
			],
			"type":"VEC3"
		},
		{
			"bufferView":8,
			"componentType":5126,
			"count":73,
			"type":"VEC3"
		},
		{
			"bufferView":9,
			"componentType":5123,
			"count":171,
			"type":"SCALAR"
		},
		{
			"bufferView":10,
			"componentType":5126,
			"count":160,
			"max":[
				0.00048500101547688246,
				-0.020136695355176926,
				0.0011404270771890879
			],
			"min":[
				-0.0005149989738129079,
				-0.0211366955190897,
				0.00014042599650565535
			],
			"type":"VEC3"
		},
		{
			"bufferView":11,
			"componentType":5126,
			"count":160,
			"type":"VEC3"
		},
		{
			"bufferView":12,
			"componentType":5123,
			"count":240,
			"type":"SCALAR"
		},
		{
			"bufferView":13,
			"componentType":5126,
			"count":90,
			"max":[
				0.000484034011606127,
				0.00031197103089652956,
				0.0010000000474974513
			],
			"min":[
				-0.0005159660358913243,
				-0.0006880290457047522,
				0
			],
			"type":"VEC3"
		},
		{
			"bufferView":14,
			"componentType":5126,
			"count":90,
			"type":"VEC3"
		},
		{
			"bufferView":15,
			"componentType":5123,
			"count":138,
			"type":"SCALAR"
		},
		{
			"bufferView":16,
			"componentType":5126,
			"count":12,
			"max":[
				0.000484034011606127,
				0.010130522772669792,
				0.0010657890234142542
			],
			"min":[
				-0.0005159660358913243,
				0.009130523540079594,
				6.578900502063334e-05
			],
			"type":"VEC3"
		},
		{
			"bufferView":17,
			"componentType":5126,
			"count":12,
			"type":"VEC3"
		},
		{
			"bufferView":18,
			"componentType":5123,
			"count":18,
			"type":"SCALAR"
		},
		{
			"bufferView":19,
			"componentType":5126,
			"count":20,
			"max":[
				0.026221517473459244,
				0.0003115400322712958,
				0.0010000000474974513
			],
			"min":[
				0.02522151730954647,
				-0.0006884600152261555,
				0
			],
			"type":"VEC3"
		},
		{
			"bufferView":20,
			"componentType":5126,
			"count":20,
			"type":"VEC3"
		},
		{
			"bufferView":21,
			"componentType":5126,
			"count":38,
			"max":[
				-0.007760924287140369,
				-0.013417981564998627,
				0.00459318608045578
			],
			"min":[
				-0.008760923519730568,
				-0.0144179817289114,
				0.0035931861493736506
			],
			"type":"VEC3"
		},
		{
			"bufferView":22,
			"componentType":5126,
			"count":38,
			"type":"VEC3"
		},
		{
			"bufferView":23,
			"componentType":5123,
			"count":174,
			"type":"SCALAR"
		},
		{
			"bufferView":24,
			"componentType":5126,
			"count":4,
			"max":[
				1,
				0,
				1
			],
			"min":[
				-1,
				0,
				-1
			],
			"type":"VEC3"
		},
		{
			"bufferView":25,
			"componentType":5126,
			"count":4,
			"type":"VEC3"
		},
		{
			"bufferView":26,
			"componentType":5126,
			"count":4,
			"type":"VEC2"
		},
		{
			"bufferView":27,
			"componentType":5123,
			"count":6,
			"type":"SCALAR"
		}
	],
	"bufferViews":[
		{
			"buffer":0,
			"byteLength":240,
			"byteOffset":0,
			"target":34962
		},
		{
			"buffer":0,
			"byteLength":240,
			"byteOffset":240,
			"target":34962
		},
		{
			"buffer":0,
			"byteLength":160,
			"byteOffset":480,
			"target":34962
		},
		{
			"buffer":0,
			"byteLength":60,
			"byteOffset":640,
			"target":34963
		},
		{
			"buffer":0,
			"byteLength":2880,
			"byteOffset":700,
			"target":34962
		},
		{
			"buffer":0,
			"byteLength":2880,
			"byteOffset":3580,
			"target":34962
		},
		{
			"buffer":0,
			"byteLength":864,
			"byteOffset":6460,
			"target":34963
		},
		{
			"buffer":0,
			"byteLength":876,
			"byteOffset":7324,
			"target":34962
		},
		{
			"buffer":0,
			"byteLength":876,
			"byteOffset":8200,
			"target":34962
		},
		{
			"buffer":0,
			"byteLength":342,
			"byteOffset":9076,
			"target":34963
		},
		{
			"buffer":0,
			"byteLength":1920,
			"byteOffset":9420,
			"target":34962
		},
		{
			"buffer":0,
			"byteLength":1920,
			"byteOffset":11340,
			"target":34962
		},
		{
			"buffer":0,
			"byteLength":480,
			"byteOffset":13260,
			"target":34963
		},
		{
			"buffer":0,
			"byteLength":1080,
			"byteOffset":13740,
			"target":34962
		},
		{
			"buffer":0,
			"byteLength":1080,
			"byteOffset":14820,
			"target":34962
		},
		{
			"buffer":0,
			"byteLength":276,
			"byteOffset":15900,
			"target":34963
		},
		{
			"buffer":0,
			"byteLength":144,
			"byteOffset":16176,
			"target":34962
		},
		{
			"buffer":0,
			"byteLength":144,
			"byteOffset":16320,
			"target":34962
		},
		{
			"buffer":0,
			"byteLength":36,
			"byteOffset":16464,
			"target":34963
		},
		{
			"buffer":0,
			"byteLength":240,
			"byteOffset":16500,
			"target":34962
		},
		{
			"buffer":0,
			"byteLength":240,
			"byteOffset":16740,
			"target":34962
		},
		{
			"buffer":0,
			"byteLength":456,
			"byteOffset":16980,
			"target":34962
		},
		{
			"buffer":0,
			"byteLength":456,
			"byteOffset":17436,
			"target":34962
		},
		{
			"buffer":0,
			"byteLength":348,
			"byteOffset":17892,
			"target":34963
		},
		{
			"buffer":0,
			"byteLength":48,
			"byteOffset":18240,
			"target":34962
		},
		{
			"buffer":0,
			"byteLength":48,
			"byteOffset":18288,
			"target":34962
		},
		{
			"buffer":0,
			"byteLength":32,
			"byteOffset":18336,
			"target":34962
		},
		{
			"buffer":0,
			"byteLength":12,
			"byteOffset":18368,
			"target":34963
		}
	],
	"samplers":[
		{
			"magFilter":9729,
			"minFilter":9987
		}
	],
	"buffers":[
		{
			"byteLength":18380,
			"uri":"simple.bin"
		}
	]
}
