{
	"asset":{
		"generator":"Khronos glTF Blender I/O v5.1.19",
		"version":"2.0"
	},
	"scene":0,
	"scenes":[
		{
			"name":"Scene",
			"nodes":[
				0,
				1,
				2,
				3
			]
		}
	],
	"nodes":[
		{
			"mesh":0,
			"name":"Cube",
			"translation":[
				0,
				0,
				0.2742908000946045
			]
		},
		{
			"mesh":1,
			"name":"\u7403",
			"scale":[
				0.060126759111881256,
				0.060126759111881256,
				0.060126759111881256
			],
			"translation":[
				0,
				0.05718649923801422,
				0
			]
		},
		{
			"mesh":2,
			"name":"\u5186\u67f1",
			"rotation":[
				0.06274046748876572,
				-0.11301060765981674,
				-0.481315553188324,
				0.86696457862854
			],
			"scale":[
				0.006052899640053511,
				0.001000040560029447,
				0.006052900105714798
			],
			"translation":[
				0.0483442060649395,
				0.08559530973434448,
				0.017354553565382957
			]
		},
		{
			"mesh":3,
			"name":"\u5186\u67f1.001",
			"rotation":[
				-0.03035583347082138,
				0.05467812716960907,
				-0.48443731665611267,
				0.8725876808166504
			],
			"scale":[
				0.006013953592628241,
				0.0010000000474974513,
				0.006013953592628241
			],
			"translation":[
				0.0483442060649395,
				0.08559530973434448,
				-0.016669508069753647
			]
		}
	],
	"materials":[
		{
			"doubleSided":true,
			"name":"Material.001",
			"pbrMetallicRoughness":{
				"metallicFactor":0
			}
		},
		{
			"doubleSided":true,
			"name":"\u30de\u30c6\u30ea\u30a2\u30eb",
			"pbrMetallicRoughness":{
				"metallicFactor":0,
				"roughnessFactor":0.5
			}
		}
	],
	"meshes":[
		{
			"name":"Cube.001",
			"primitives":[
				{
					"attributes":{
						"POSITION":0,
						"NORMAL":1,
						"TEXCOORD_0":2
					},
					"indices":3,
					"material":0
				}
			]
		},
		{
			"name":"\u7403",
			"primitives":[
				{
					"attributes":{
						"POSITION":4,
						"NORMAL":5,
						"TEXCOORD_0":6
					},
					"indices":7
				}
			]
		},
		{
			"name":"\u5186\u67f1.001",
			"primitives":[
				{
					"attributes":{
						"POSITION":8,
						"NORMAL":9,
						"TEXCOORD_0":10
					},
					"indices":11
				}
			]
		},
		{
			"name":"\u5186\u67f1.002",
			"primitives":[
				{
					"attributes":{
						"POSITION":12,
						"NORMAL":13,
						"TEXCOORD_0":14
					},
					"indices":11,
					"material":1
				}
			]
		}
	],
	"accessors":[
		{
			"bufferView":0,
			"componentType":5126,
			"count":160,
			"max":[
				0.059031710028648376,
				0.0744650736451149,
				0.059031710028648376
			],
			"min":[
				-0.059031710028648376,
				-0.0003162380598951131,
				-0.059031710028648376
			],
			"type":"VEC3"
		},
		{
			"bufferView":1,
			"componentType":5126,
			"count":160,
			"type":"VEC3"
		},
		{
			"bufferView":2,
			"componentType":5126,
			"count":160,
			"type":"VEC2"
		},
		{
			"bufferView":3,
			"componentType":5123,
			"count":780,
			"type":"SCALAR"
		},
		{
			"bufferView":4,
			"componentType":5126,
			"count":480,
			"max":[
				1,
				0.9238795042037964,
				1
			],
			"min":[
				-0.9999999403953552,
				-0.941632866859436,
				-1
			],
			"type":"VEC3"
		},
		{
			"bufferView":5,
			"componentType":5126,
			"count":480,
			"type":"VEC3"
		},
		{
			"bufferView":6,
			"componentType":5126,
			"count":480,
			"type":"VEC2"
		},
		{
			"bufferView":7,
			"componentType":5123,
			"count":672,
			"type":"SCALAR"
		},
		{
			"bufferView":8,
			"componentType":5126,
			"count":96,
			"max":[
				1,
				1,
				1
			],
			"min":[
				-1,
				-1,
				-1
			],
			"type":"VEC3"
		},
		{
			"bufferView":9,
			"componentType":5126,
			"count":96,
			"type":"VEC3"
		},
		{
			"bufferView":10,
			"componentType":5126,
			"count":96,
			"type":"VEC2"
		},
		{
			"bufferView":11,
			"componentType":5123,
			"count":180,
			"type":"SCALAR"
		},
		{
			"bufferView":12,
			"componentType":5126,
			"count":96,
			"max":[
				1,
				1,
				1
			],
			"min":[
				-1,
				-1,
				-1
			],
			"type":"VEC3"
		},
		{
			"bufferView":13,
			"componentType":5126,
			"count":96,
			"type":"VEC3"
		},
		{
			"bufferView":14,
			"componentType":5126,
			"count":96,
			"type":"VEC2"
		}
	],
	"bufferViews":[
		{
			"buffer":0,
			"byteLength":1920,
			"byteOffset":0,
			"target":34962
		},
		{
			"buffer":0,
			"byteLength":1920,
			"byteOffset":1920,
			"target":34962
		},
		{
			"buffer":0,
			"byteLength":1280,
			"byteOffset":3840,
			"target":34962
		},
		{
			"buffer":0,
			"byteLength":1560,
			"byteOffset":5120,
			"target":34963
		},
		{
			"buffer":0,
			"byteLength":5760,
			"byteOffset":6680,
			"target":34962
		},
		{
			"buffer":0,
			"byteLength":5760,
			"byteOffset":12440,
			"target":34962
		},
		{
			"buffer":0,
			"byteLength":3840,
			"byteOffset":18200,
			"target":34962
		},
		{
			"buffer":0,
			"byteLength":1344,
			"byteOffset":22040,
			"target":34963
		},
		{
			"buffer":0,
			"byteLength":1152,
			"byteOffset":23384,
			"target":34962
		},
		{
			"buffer":0,
			"byteLength":1152,
			"byteOffset":24536,
			"target":34962
		},
		{
			"buffer":0,
			"byteLength":768,
			"byteOffset":25688,
			"target":34962
		},
		{
			"buffer":0,
			"byteLength":360,
			"byteOffset":26456,
			"target":34963
		},
		{
			"buffer":0,
			"byteLength":1152,
			"byteOffset":26816,
			"target":34962
		},
		{
			"buffer":0,
			"byteLength":1152,
			"byteOffset":27968,
			"target":34962
		},
		{
			"buffer":0,
			"byteLength":768,
			"byteOffset":29120,
			"target":34962
		}
	],
	"buffers":[
		{
			"byteLength":29888,
			"uri":"tofuchara.bin"
		}
	]
}
