{
	"asset":{
		"generator":"Khronos glTF Blender I/O v5.1.19",
		"version":"2.0"
	},
	"scene":0,
	"scenes":[
		{
			"name":"Scene",
			"nodes":[
				0
			]
		}
	],
	"nodes":[
		{
			"mesh":0,
			"name":"pot"
		}
	],
	"materials":[
		{
			"alphaMode":"BLEND",
			"doubleSided":true,
			"name":"metallic",
			"normalTexture":{
				"index":0
			},
			"pbrMetallicRoughness":{
				"baseColorTexture":{
					"index":1
				},
				"roughnessFactor":0.6000000238418579
			}
		}
	],
	"meshes":[
		{
			"name":"pot.001",
			"primitives":[
				{
					"attributes":{
						"POSITION":0,
						"NORMAL":1,
						"TEXCOORD_0":2
					},
					"indices":3,
					"material":0
				}
			]
		}
	],
	"textures":[
		{
			"sampler":0,
			"source":0
		},
		{
			"sampler":0,
			"source":1
		}
	],
	"images":[
		{
			"mimeType":"image/png",
			"name":"Kitchenware_ch1_normal",
			"uri":"Kitchenware_ch1_normal.png"
		},
		{
			"mimeType":"image/png",
			"name":"Kitchenware_ch1",
			"uri":"Kitchenware_ch1.png"
		}
	],
	"accessors":[
		{
			"bufferView":0,
			"componentType":5126,
			"count":522,
			"max":[
				0.0925000011920929,
				0.0890008807182312,
				0.0925000011920929
			],
			"min":[
				-0.0925000011920929,
				2.9103830456733704e-10,
				-0.0925000011920929
			],
			"type":"VEC3"
		},
		{
			"bufferView":1,
			"componentType":5126,
			"count":522,
			"type":"VEC3"
		},
		{
			"bufferView":2,
			"componentType":5126,
			"count":522,
			"type":"VEC2"
		},
		{
			"bufferView":3,
			"componentType":5123,
			"count":2016,
			"type":"SCALAR"
		}
	],
	"bufferViews":[
		{
			"buffer":0,
			"byteLength":6264,
			"byteOffset":0,
			"target":34962
		},
		{
			"buffer":0,
			"byteLength":6264,
			"byteOffset":6264,
			"target":34962
		},
		{
			"buffer":0,
			"byteLength":4176,
			"byteOffset":12528,
			"target":34962
		},
		{
			"buffer":0,
			"byteLength":4032,
			"byteOffset":16704,
			"target":34963
		}
	],
	"samplers":[
		{
			"magFilter":9729,
			"minFilter":9987
		}
	],
	"buffers":[
		{
			"byteLength":20736,
			"uri":"pot.bin"
		}
	]
}
